# xmcd
#
# Track frame offsets:
# 182
# 10742
# 21442
# 34800
# 45540
# 55815
# 68957
# 81227
# 93382
# 104792
# 119145
# 133867
# 145755
# 157810
# 167847
# 180495
# 191135
# 201645
# 213757
# 224945
# 234842
# 242870
# 252280
# 260552
# 268767
# 280500
# 292807
# 305057
#
# Disc length: 4211 seconds
#
#
# Revision: 3
# Processed by: cddbd v1.5.2PL0 Copyright (c) Steve Scherf et al.
# Submitted via: FreeRIP 2.951 
#
DISCID=b110711c
DTITLE=Chuck Berry - Hail! Hail! Rock 'n' Roll
DYEAR=1900
DGENRE=Rock´n´Roll
TTITLE0=Maybellene
TTITLE1=Thirty Days
TTITLE2=No Money Down
TTITLE3=Roll Over Beethoven
TTITLE4=Brown Eyed Handsome Man
TTITLE5=Too Much Monkey Business
TTITLE6=You Can't Catch Me
TTITLE7=School Day (Ring! Ring! Goes The Bell)
TTITLE8=Rock and Roll Music
TTITLE9=Sweet Little Sixteen
TTITLE10=Reelin' and Rockin'
TTITLE11=Johnny B. Goode
TTITLE12=Around And Around
TTITLE13=Beutiful Delilah
TTITLE14=Carol
TTITLE15=Sweet Little Rock And Roller
TTITLE16=Almost Grown
TTITLE17=Little Queenie
TTITLE18=Back In The USA
TTITLE19=Memphis, Tenessee
TTITLE20=Let It Rock
TTITLE21=Bye Bye Johnny
TTITLE22=I'm Talking About You
TTITLE23=Come On
TTITLE24=Nadine (Is It You?)
TTITLE25=No Particular Place To Go
TTITLE26=You Never Can Tell
TTITLE27=Promised Land
EXTD=
EXTT0=(P) 1955
EXTT1=(P) 1955
EXTT2=(P) 1955
EXTT3=(P) 1956
EXTT4=(P) 1956 (Arc Music Group)
EXTT5=(P) 1956
EXTT6=(P) 1955
EXTT7=(P) 1956
EXTT8=(P) 1957
EXTT9=(P) 1958
EXTT10=(P) 1958
EXTT11=(P) 1958
EXTT12=(P) 1958
EXTT13=(P) 1958
EXTT14=(P) 1958
EXTT15=(P) 1958
EXTT16=(P) 1959
EXTT17=(P) 1958
EXTT18=(P) 1959
EXTT19=(P) 1958
EXTT20=(P) 1959
EXTT21=(P) 1960 (Arc Music Group)
EXTT22=(P) 1961 (Arc Music Group)
EXTT23=(P) 1961 (Arc Music Group)
EXTT24=(P) 1964 (Arc Music Group)
EXTT25=(P) 1964 (Arc Music Group)
EXTT26=(P) 1964 (Arc Music Group)
EXTT27=(P) 1964 (Arc Music Group)
PLAYORDER=
